<svg width="19" height="19" viewBox="0 0 19 19" fill="none" xmlns="http://www.w3.org/2000/svg">
<path d="M10.6944 10.0877C12.4122 9.48311 13.6434 7.84638 13.6434 5.92212C13.6434 3.48178 11.6602 1.49854 9.21982 1.49853C6.77948 1.49853 4.79624 3.48178 4.79624 5.92212C4.79624 7.84638 6.02747 9.48311 7.74529 10.0877L7.74529 13.2948L4.79624 13.2948L4.79624 16.2438L7.74529 16.2438L7.74529 17.7184L10.6944 17.7184L10.6944 10.0877ZM7.74529 5.92212C7.74529 5.11113 8.40883 4.44759 9.21982 4.44759C10.0308 4.44759 10.6944 5.11113 10.6944 5.92212C10.6944 6.73311 10.0308 7.39665 9.21982 7.39665C8.40883 7.39665 7.74529 6.73311 7.74529 5.92212Z" fill="#ECA610"/>
</svg>
