<svg width="17" height="17" viewBox="0 0 17 17" fill="none" xmlns="http://www.w3.org/2000/svg">
<g clip-path="url(#clip0_123_1109)">
<path d="M0.708374 6.375H2.12504V4.95833H0.708374V6.375ZM0.708374 9.20833H2.12504V7.79167H0.708374V9.20833ZM0.708374 3.54167H2.12504V2.125C1.34587 2.125 0.708374 2.7625 0.708374 3.54167ZM6.37504 14.875H7.79171V13.4583H6.37504V14.875ZM0.708374 12.0417H2.12504V10.625H0.708374V12.0417ZM2.12504 14.875V13.4583H0.708374C0.708374 14.2375 1.34587 14.875 2.12504 14.875ZM14.875 2.125H9.20837V6.375H16.2917V3.54167C16.2917 2.7625 15.6542 2.125 14.875 2.125ZM14.875 12.0417H16.2917V10.625H14.875V12.0417ZM6.37504 3.54167H7.79171V2.125H6.37504V3.54167ZM3.54171 14.875H4.95837V13.4583H3.54171V14.875ZM3.54171 3.54167H4.95837V2.125H3.54171V3.54167ZM14.875 14.875C15.6542 14.875 16.2917 14.2375 16.2917 13.4583H14.875V14.875ZM14.875 9.20833H16.2917V7.79167H14.875V9.20833ZM9.20837 14.875H10.625V13.4583H9.20837V14.875ZM12.0417 14.875H13.4584V13.4583H12.0417V14.875Z" fill="black"/>
</g>
<defs>
<clipPath id="clip0_123_1109">
<rect width="17" height="17" fill="white"/>
</clipPath>
</defs>
</svg>
