<svg width="320" height="213" viewBox="0 0 320 213" fill="none" xmlns="http://www.w3.org/2000/svg">
<path d="M140.504 129.266V90.7237L218.199 46.0642V82.9746L140.504 129.266Z" fill="#FEB913" fill-opacity="0.14" stroke="#FEB913" stroke-dasharray="2 2"/>
<path d="M278.03 44.7738V43.7596H282.808V44.7738H281.027V49.5778H279.811V44.7738H278.03ZM285.087 49.5778H283.769L285.777 43.7596H287.362L289.368 49.5778H288.05L286.593 45.0892H286.547L285.087 49.5778ZM285.004 47.2909H288.118V48.2511H285.004V47.2909ZM290.336 44.7738V43.7596H295.114V44.7738H293.333V49.5778H292.117V44.7738H290.336ZM297.393 49.5778H296.075L298.083 43.7596H299.669L301.674 49.5778H300.356L298.899 45.0892H298.853L297.393 49.5778ZM297.311 47.2909H300.424V48.2511H297.311V47.2909ZM303.575 43.7596H305.092L306.694 47.6687H306.762L308.364 43.7596H309.881V49.5778H308.688V45.7909H308.64L307.134 49.5494H306.322L304.816 45.7767H304.768V49.5778H303.575V43.7596ZM313.325 43.7596V49.5778H312.095V43.7596H313.325Z" fill="white"/>
<path d="M6.64865 90.9747H7.87876V94.7531C7.87876 95.1774 7.77744 95.5486 7.57479 95.8668C7.37403 96.185 7.09278 96.4331 6.73104 96.6111C6.3693 96.7872 5.94789 96.8753 5.46683 96.8753C4.98388 96.8753 4.56153 96.7872 4.19979 96.6111C3.83804 96.4331 3.55679 96.185 3.35604 95.8668C3.15528 95.5486 3.0549 95.1774 3.0549 94.7531V90.9747H4.28501V94.648C4.28501 94.8696 4.33331 95.0666 4.4299 95.2389C4.52839 95.4113 4.66664 95.5467 4.84467 95.6452C5.0227 95.7437 5.23009 95.7929 5.46683 95.7929C5.70547 95.7929 5.91286 95.7437 6.08899 95.6452C6.26702 95.5467 6.40433 95.4113 6.50092 95.2389C6.59941 95.0666 6.64865 94.8696 6.64865 94.648V90.9747ZM14.9573 90.9747V96.7929H13.8948L11.3636 93.131H11.321V96.7929H10.0908V90.9747H11.1704L13.6817 94.6338H13.7329V90.9747H14.9573ZM18.4038 90.9747V96.7929H17.1737V90.9747H18.4038ZM20.3942 91.9889V90.9747H25.1727V91.9889H23.3914V96.7929H22.1755V91.9889H20.3942ZM26.8187 90.9747H28.1965L29.5232 93.4804H29.58L30.9067 90.9747H32.2846L30.1624 94.7361V96.7929H28.9408V94.7361L26.8187 90.9747ZM4.71364 102.855C4.67386 102.717 4.61799 102.595 4.54602 102.489C4.47405 102.381 4.38599 102.29 4.28182 102.216C4.17955 102.14 4.06212 102.083 3.92955 102.043C3.79886 102.003 3.65398 101.983 3.49489 101.983C3.19754 101.983 2.93617 102.057 2.7108 102.205C2.48731 102.353 2.31307 102.568 2.18807 102.85C2.06307 103.13 2.00057 103.473 2.00057 103.878C2.00057 104.283 2.06212 104.628 2.18523 104.912C2.30833 105.196 2.48258 105.413 2.70795 105.563C2.93333 105.711 3.19943 105.784 3.50625 105.784C3.78466 105.784 4.02235 105.735 4.21932 105.637C4.41818 105.536 4.5697 105.395 4.67386 105.213C4.77992 105.032 4.83295 104.817 4.83295 104.568L5.08295 104.605H3.58296V103.679H6.01761V104.412C6.01761 104.924 5.90966 105.363 5.69375 105.73C5.47784 106.096 5.18049 106.378 4.8017 106.577C4.42292 106.774 3.9892 106.872 3.50057 106.872C2.95511 106.872 2.47595 106.752 2.06307 106.512C1.65019 106.269 1.32822 105.925 1.09716 105.48C0.867993 105.033 0.753409 104.503 0.753409 103.889C0.753409 103.418 0.821591 102.997 0.957955 102.628C1.09621 102.257 1.28939 101.943 1.5375 101.685C1.78561 101.427 2.07443 101.231 2.40398 101.097C2.73352 100.962 3.09053 100.895 3.475 100.895C3.80455 100.895 4.11136 100.943 4.39545 101.04C4.67955 101.135 4.93144 101.269 5.15114 101.443C5.37273 101.618 5.5536 101.825 5.69375 102.066C5.8339 102.304 5.92386 102.568 5.96364 102.855H4.71364ZM13.4882 103.884C13.4882 104.518 13.3679 105.058 13.1274 105.503C12.8888 105.948 12.563 106.288 12.1501 106.523C11.7392 106.756 11.277 106.872 10.7638 106.872C10.2467 106.872 9.78272 106.755 9.37173 106.52C8.96075 106.285 8.63594 105.945 8.3973 105.5C8.15866 105.055 8.03935 104.516 8.03935 103.884C8.03935 103.249 8.15866 102.71 8.3973 102.264C8.63594 101.819 8.96075 101.48 9.37173 101.247C9.78272 101.013 10.2467 100.895 10.7638 100.895C11.277 100.895 11.7392 101.013 12.1501 101.247C12.563 101.48 12.8888 101.819 13.1274 102.264C13.3679 102.71 13.4882 103.249 13.4882 103.884ZM12.2411 103.884C12.2411 103.473 12.1795 103.126 12.0564 102.844C11.9352 102.562 11.7638 102.348 11.5422 102.202C11.3206 102.056 11.0611 101.983 10.7638 101.983C10.4664 101.983 10.207 102.056 9.98537 102.202C9.76378 102.348 9.59143 102.562 9.46832 102.844C9.34711 103.126 9.28651 103.473 9.28651 103.884C9.28651 104.295 9.34711 104.641 9.46832 104.924C9.59143 105.206 9.76378 105.42 9.98537 105.566C10.207 105.711 10.4664 105.784 10.7638 105.784C11.0611 105.784 11.3206 105.711 11.5422 105.566C11.7638 105.42 11.9352 105.206 12.0564 104.924C12.1795 104.641 12.2411 104.295 12.2411 103.884ZM17.6619 106.793H15.5994V100.975H17.679C18.2642 100.975 18.768 101.091 19.1903 101.324C19.6127 101.555 19.9375 101.888 20.1648 102.321C20.3939 102.755 20.5085 103.274 20.5085 103.878C20.5085 104.484 20.3939 105.005 20.1648 105.441C19.9375 105.876 19.6108 106.211 19.1847 106.443C18.7604 106.676 18.2528 106.793 17.6619 106.793ZM16.8295 105.739H17.6108C17.9744 105.739 18.2803 105.675 18.5284 105.546C18.7784 105.415 18.9659 105.213 19.0909 104.941C19.2178 104.666 19.2812 104.312 19.2812 103.878C19.2812 103.448 19.2178 103.097 19.0909 102.824C18.9659 102.551 18.7794 102.351 18.5312 102.222C18.2831 102.093 17.9773 102.029 17.6136 102.029H16.8295V105.739ZM27.9663 103.884C27.9663 104.518 27.8461 105.058 27.6055 105.503C27.3669 105.948 27.0411 106.288 26.6283 106.523C26.2173 106.756 25.7552 106.872 25.2419 106.872C24.7249 106.872 24.2608 106.755 23.8499 106.52C23.4389 106.285 23.1141 105.945 22.8754 105.5C22.6368 105.055 22.5175 104.516 22.5175 103.884C22.5175 103.249 22.6368 102.71 22.8754 102.264C23.1141 101.819 23.4389 101.48 23.8499 101.247C24.2608 101.013 24.7249 100.895 25.2419 100.895C25.7552 100.895 26.2173 101.013 26.6283 101.247C27.0411 101.48 27.3669 101.819 27.6055 102.264C27.8461 102.71 27.9663 103.249 27.9663 103.884ZM26.7192 103.884C26.7192 103.473 26.6576 103.126 26.5345 102.844C26.4133 102.562 26.2419 102.348 26.0203 102.202C25.7987 102.056 25.5393 101.983 25.2419 101.983C24.9446 101.983 24.6851 102.056 24.4635 102.202C24.2419 102.348 24.0696 102.562 23.9464 102.844C23.8252 103.126 23.7646 103.473 23.7646 103.884C23.7646 104.295 23.8252 104.641 23.9464 104.924C24.0696 105.206 24.2419 105.42 24.4635 105.566C24.6851 105.711 24.9446 105.784 25.2419 105.784C25.5393 105.784 25.7987 105.711 26.0203 105.566C26.2419 105.42 26.4133 105.206 26.5345 104.924C26.6576 104.641 26.7192 104.295 26.7192 103.884ZM29.5903 101.989V100.975H34.3687V101.989H32.5875V106.793H31.3716V101.989H29.5903ZM8.80959 116.793V110.975H12.73V111.989H10.0397V113.375H12.5283V114.389H10.0397V115.779H12.7414V116.793H8.80959ZM14.6864 111.989V110.975H19.4648V111.989H17.6836V116.793H16.4677V111.989H14.6864ZM26.3197 113.012H25.0754C25.0526 112.851 25.0062 112.708 24.9362 112.583C24.8661 112.456 24.7761 112.348 24.6663 112.259C24.5564 112.17 24.4295 112.102 24.2856 112.054C24.1435 112.007 23.9892 111.983 23.8225 111.983C23.5214 111.983 23.2591 112.058 23.0356 112.208C22.8121 112.355 22.6388 112.571 22.5157 112.855C22.3926 113.138 22.331 113.48 22.331 113.884C22.331 114.299 22.3926 114.647 22.5157 114.929C22.6407 115.211 22.8149 115.425 23.0384 115.568C23.2619 115.712 23.5204 115.784 23.814 115.784C23.9788 115.784 24.1312 115.763 24.2714 115.719C24.4134 115.675 24.5394 115.612 24.6492 115.529C24.7591 115.443 24.85 115.34 24.9219 115.219C24.9958 115.098 25.0469 114.96 25.0754 114.804L26.3197 114.81C26.2875 115.077 26.207 115.335 26.0782 115.583C25.9513 115.829 25.7799 116.05 25.564 116.245C25.35 116.438 25.0943 116.591 24.7969 116.705C24.5015 116.817 24.1672 116.872 23.7941 116.872C23.2752 116.872 22.8112 116.755 22.4021 116.52C21.9949 116.285 21.6729 115.945 21.4362 115.5C21.2013 115.055 21.0839 114.516 21.0839 113.884C21.0839 113.249 21.2032 112.71 21.4418 112.264C21.6805 111.819 22.0043 111.48 22.4134 111.247C22.8225 111.013 23.2827 110.895 23.7941 110.895C24.1312 110.895 24.4437 110.943 24.7316 111.037C25.0214 111.132 25.278 111.27 25.5015 111.452C25.725 111.632 25.9068 111.853 26.0469 112.114C26.189 112.375 26.2799 112.675 26.3197 113.012Z" fill="white"/>
<path d="M219.015 60.3389H287.126" stroke="#FEB913" stroke-width="2" stroke-dasharray="2 2"/>
<path d="M22.4317 129.265H63.2167" stroke="white" stroke-width="2" stroke-dasharray="2 2"/>
<path d="M140.708 122.332L63.6245 167.399L140.708 212.059L218.199 167.399L140.708 122.332Z" fill="black"/>
<path d="M140.096 65.2331L63.0128 110.3L140.096 154.96L217.588 110.3L140.096 65.2331Z" fill="#323232" fill-opacity="0.51" stroke="white" stroke-dasharray="2 2"/>
<path d="M140.096 193.706V155.164L217.792 110.504V147.415L140.096 193.706Z" fill="#323232" fill-opacity="0.51" stroke="white" stroke-dasharray="2 2"/>
<path d="M140.096 193.706V155.164L62.8088 110.708V147.619L140.096 193.706Z" fill="#323232" fill-opacity="0.51" stroke="white" stroke-dasharray="2 2"/>
<path d="M88.5034 53.9152V38.0091L122.355 57.9937V73.6959L88.5034 53.9152Z" fill="#FE4A49" fill-opacity="0.4" stroke="#FE4A49" stroke-opacity="0.4"/>
<path d="M156.002 54.3231L122.559 73.696V57.9938L156.002 38.6209V54.3231Z" fill="#FE4A49" fill-opacity="0.4" stroke="#FE4A49" stroke-opacity="0.4"/>
<path d="M121.746 18.3304L88.5034 37.8068L122.354 57.8918L155.799 38.4154L121.746 18.3304Z" fill="#EE2D3F" stroke="#FE4A49" stroke-opacity="0.4"/>
<path d="M298.304 57.2184C298.754 57.857 299.078 58.5852 299.241 59.3696L297.773 59.6753C297.831 59.9547 297.862 60.2446 297.862 60.5428C297.862 60.8411 297.831 61.131 297.773 61.4104L299.241 61.7161C299.078 62.5005 298.754 63.2287 298.304 63.8673L297.078 63.0035C296.74 63.4825 296.306 63.8975 295.798 64.2205L296.603 65.4859C295.951 65.9008 295.213 66.1985 294.419 66.3477L294.142 64.8735C293.852 64.9279 293.552 64.9567 293.244 64.9567C292.935 64.9567 292.635 64.9279 292.346 64.8735L292.069 66.3477C291.275 66.1985 290.536 65.9008 289.884 65.4859L290.69 64.2205C290.182 63.8975 289.747 63.4825 289.41 63.0035L288.184 63.8673C287.734 63.2287 287.41 62.5005 287.246 61.7161L288.715 61.4104C288.657 61.131 288.626 60.8411 288.626 60.5428C288.626 60.2446 288.657 59.9547 288.715 59.6753L287.246 59.3696C287.41 58.5852 287.734 57.857 288.184 57.2184L289.41 58.0822C289.747 57.6032 290.182 57.1882 290.69 56.8652L289.884 55.5998C290.536 55.1849 291.275 54.8872 292.069 54.738L292.346 56.2121C292.635 56.1578 292.935 56.129 293.244 56.129C293.552 56.129 293.852 56.1578 294.142 56.2121L294.419 54.738C295.213 54.8872 295.951 55.1849 296.603 55.5998L295.798 56.8652C296.306 57.1882 296.74 57.6032 297.078 58.0822L298.304 57.2184Z" stroke="#FEB913" stroke-width="3" stroke-dasharray="2 2"/>
<path d="M20.9664 126.145C21.4163 126.784 21.7402 127.512 21.9035 128.296L20.435 128.602C20.4931 128.881 20.5239 129.171 20.5239 129.469C20.5239 129.768 20.4931 130.058 20.435 130.337L21.9035 130.643C21.7402 131.427 21.4163 132.155 20.9664 132.794L19.7401 131.93C19.4027 132.409 18.9678 132.824 18.4604 133.147L19.2657 134.413C18.6138 134.827 17.8748 135.125 17.081 135.274L16.8038 133.8C16.5146 133.855 16.2146 133.883 15.9061 133.883C15.5976 133.883 15.2976 133.855 15.0084 133.8L14.7312 135.274C13.9375 135.125 13.1985 134.827 12.5465 134.413L13.3519 133.147C12.8444 132.824 12.4095 132.409 12.0721 131.93L10.8458 132.794C10.396 132.155 10.0721 131.427 9.90879 130.643L11.3773 130.337C11.3191 130.058 11.2884 129.768 11.2884 129.469C11.2884 129.171 11.3191 128.881 11.3773 128.602L9.90879 128.296C10.0721 127.512 10.396 126.784 10.8458 126.145L12.0721 127.009C12.4095 126.53 12.8444 126.115 13.3519 125.792L12.5465 124.526C13.1985 124.111 13.9375 123.814 14.7312 123.665L15.0084 125.139C15.2976 125.084 15.5976 125.056 15.9061 125.056C16.2146 125.056 16.5146 125.084 16.8038 125.139L17.081 123.665C17.8748 123.814 18.6138 124.111 19.2657 124.526L18.4604 125.792C18.9678 126.115 19.4027 126.53 19.7401 127.009L20.9664 126.145Z" stroke="white" stroke-width="3" stroke-dasharray="2 2"/>
<path d="M129.321 63.9577L127.737 60.0124L128.8 59.3988L129.658 62.0094L129.688 61.9924L130.016 58.6967L130.871 58.2035L131.815 60.7713L131.847 60.7532L132.087 57.5014L133.15 56.8878L132.523 62.1093L131.602 62.6409L130.659 60.3308L130.629 60.3478L130.242 63.4261L129.321 63.9577ZM137.132 57.0989C137.183 57.5949 137.147 58.0574 137.026 58.4865C136.906 58.9135 136.722 59.2909 136.475 59.6185C136.228 59.9448 135.939 60.2035 135.608 60.3946C135.257 60.597 134.931 60.6865 134.629 60.6632C134.326 60.6385 134.073 60.4943 133.87 60.2306C133.666 59.9669 133.538 59.5768 133.484 59.0602C133.431 58.5656 133.465 58.1035 133.584 57.6737C133.705 57.2418 133.89 56.8607 134.139 56.5302C134.388 56.1997 134.678 55.9386 135.011 55.7469C135.36 55.5452 135.685 55.4577 135.987 55.4845C136.288 55.5099 136.54 55.6562 136.743 55.9233C136.947 56.1884 137.077 56.5802 137.132 57.0989ZM136.138 57.5282C136.107 57.252 136.051 57.0366 135.971 56.882C135.891 56.7253 135.788 56.6321 135.662 56.6025C135.535 56.5728 135.388 56.6063 135.221 56.7029C135.032 56.8115 134.877 56.9604 134.756 57.1494C134.635 57.3376 134.55 57.5574 134.501 57.8087C134.454 58.0593 134.446 58.3333 134.479 58.6309C134.505 58.9133 134.558 59.1298 134.64 59.2802C134.723 59.43 134.829 59.518 134.956 59.5442C135.084 59.5696 135.232 59.5345 135.398 59.4386C135.583 59.3313 135.736 59.1853 135.857 59.0005C135.978 58.8149 136.063 58.5983 136.111 58.3504C136.159 58.1012 136.168 57.8272 136.138 57.5282ZM137.869 59.0228L137.39 54.4393L138.979 53.5221C139.261 53.3594 139.512 53.2801 139.732 53.2841C139.953 53.288 140.132 53.372 140.27 53.5361C140.408 53.7001 140.494 53.9415 140.528 54.2605C140.561 54.5815 140.531 54.8876 140.437 55.179C140.344 55.4682 140.198 55.7325 139.997 55.9718C139.797 56.209 139.552 56.411 139.263 56.5779L138.282 57.1447L138.187 56.2334L138.986 55.7721C139.117 55.6968 139.225 55.6129 139.311 55.5204C139.397 55.4265 139.459 55.3237 139.496 55.212C139.534 55.0982 139.546 54.9728 139.531 54.8357C139.517 54.6987 139.481 54.5992 139.423 54.5374C139.367 54.4748 139.292 54.4481 139.196 54.4573C139.102 54.4643 138.991 54.5048 138.863 54.5787L138.448 54.8184L138.826 58.4698L137.869 59.0228ZM139.811 55.6757L140.974 57.2298L139.93 57.8328L138.789 56.2659L139.811 55.6757ZM141.365 57.0042L140.887 52.4208L141.844 51.8679L142.226 55.5079L143.782 54.6098L143.878 55.5532L141.365 57.0042ZM145.77 54.4612L144.328 55.2933L143.85 50.7099L145.241 49.9066C145.628 49.6836 145.972 49.5851 146.275 49.6112C146.579 49.6365 146.827 49.7805 147.019 50.043C147.212 50.3034 147.333 50.676 147.384 51.161C147.433 51.6294 147.401 52.0732 147.289 52.4925C147.176 52.9104 146.99 53.2882 146.732 53.6257C146.474 53.9611 146.153 54.2396 145.77 54.4612ZM145.182 53.7516L145.59 53.5161C145.793 53.3989 145.962 53.2547 146.097 53.0834C146.232 52.9122 146.327 52.7053 146.383 52.4629C146.439 52.2184 146.449 51.9291 146.414 51.5951C146.381 51.2789 146.319 51.0512 146.229 50.9119C146.14 50.7719 146.021 50.7056 145.871 50.7129C145.722 50.7181 145.544 50.7807 145.336 50.9007L144.912 51.1457L145.182 53.7516ZM149.834 48.7425C149.806 48.5898 149.742 48.4946 149.643 48.4569C149.544 48.4192 149.407 48.4504 149.234 48.5506C149.121 48.6159 149.029 48.6871 148.959 48.7642C148.888 48.8398 148.838 48.9186 148.808 49.0005C148.778 49.0811 148.767 49.1603 148.775 49.2381C148.778 49.3008 148.794 49.3506 148.82 49.3874C148.848 49.4235 148.887 49.4477 148.937 49.46C148.988 49.4716 149.049 49.4727 149.12 49.4632C149.192 49.4517 149.273 49.4321 149.362 49.4044L149.687 49.3069C149.888 49.2464 150.065 49.2158 150.22 49.2154C150.374 49.2135 150.505 49.2435 150.615 49.3051C150.724 49.3654 150.811 49.4554 150.875 49.5751C150.939 49.6948 150.98 49.8442 150.998 50.0233C151.029 50.3175 150.994 50.604 150.894 50.8831C150.796 51.16 150.639 51.4189 150.425 51.6598C150.211 51.8986 149.946 52.1093 149.63 52.2918C149.309 52.4772 149.023 52.5805 148.772 52.6019C148.521 52.6219 148.317 52.5507 148.16 52.3884C148.002 52.2261 147.904 51.9627 147.864 51.5984L148.777 51.0711C148.797 51.2129 148.84 51.316 148.907 51.3805C148.973 51.4449 149.058 51.4742 149.161 51.4684C149.266 51.4605 149.384 51.4181 149.517 51.3414C149.635 51.2733 149.733 51.1968 149.812 51.112C149.89 51.0272 149.947 50.9397 149.983 50.8494C150.019 50.7591 150.032 50.6709 150.022 50.5848C150.014 50.507 149.987 50.4509 149.939 50.4164C149.893 50.38 149.824 50.3645 149.732 50.3702C149.64 50.3745 149.522 50.3981 149.379 50.4412L148.982 50.5585C148.644 50.6572 148.369 50.6593 148.158 50.5648C147.947 50.4696 147.824 50.246 147.787 49.894C147.755 49.6068 147.792 49.3188 147.898 49.03C148.004 48.7412 148.163 48.4723 148.375 48.2231C148.588 47.9719 148.842 47.7614 149.136 47.5917C149.433 47.4198 149.698 47.332 149.929 47.3282C150.16 47.323 150.347 47.3955 150.49 47.5456C150.632 47.6958 150.72 47.9182 150.752 48.213L149.834 48.7425Z" fill="white"/>
<path d="M145.602 70.0253V54.1192L179.454 74.1038V89.806L145.602 70.0253Z" fill="#EE2D3F" fill-opacity="0.4" stroke="#FE4A49" stroke-opacity="0.4"/>
<path d="M213.101 70.4332L179.658 89.806V74.1038L213.101 54.731V70.4332Z" fill="#EE2D3F" fill-opacity="0.4" stroke="#FE4A49" stroke-opacity="0.4"/>
<path d="M178.844 34.4405L145.602 53.9169L179.453 74.0019L212.897 54.5255L178.844 34.4405Z" fill="#EE2D3F" stroke="#FE4A49" stroke-opacity="0.4"/>
<path d="M106.857 92.3551V76.449L140.708 96.4336V112.136L106.857 92.3551Z" fill="#FE4A49" fill-opacity="0.4" stroke="#FE4A49" stroke-opacity="0.4"/>
<path d="M174.356 92.763L140.912 112.136V96.4336L174.356 77.0608V92.763Z" fill="#FE4A49" fill-opacity="0.4" stroke="#FE4A49" stroke-opacity="0.4"/>
<path d="M140.099 56.7702L106.857 76.2466L140.707 96.3316L174.152 76.8552L140.099 56.7702Z" fill="#EE2D3F" stroke="#FE4A49" stroke-opacity="0.4"/>
<path d="M185.831 76.9848L187.019 76.2987L188.234 78.504L188.279 78.4785L188.918 75.2025L190.108 74.5154L190.587 79.0988L189.651 79.6389L189.364 76.8884L189.333 76.9065L188.738 80.1331L188.156 80.4687L186.989 78.243L186.96 78.26L187.243 81.0292L186.31 81.5682L185.831 76.9848ZM194.863 74.281C194.913 74.777 194.878 75.2395 194.757 75.6687C194.636 76.0957 194.452 76.473 194.206 76.8007C193.958 77.127 193.669 77.3857 193.338 77.5767C192.988 77.7791 192.661 77.8687 192.359 77.8454C192.057 77.8207 191.804 77.6765 191.6 77.4128C191.396 77.1491 191.268 76.7589 191.215 76.2423C191.162 75.7478 191.195 75.2856 191.315 74.8558C191.435 74.424 191.62 74.0428 191.869 73.7124C192.118 73.3819 192.409 73.1208 192.741 72.929C193.09 72.7273 193.416 72.6399 193.717 72.6666C194.019 72.692 194.271 72.8383 194.474 73.1055C194.678 73.3705 194.807 73.7624 194.863 74.281ZM193.868 74.7104C193.837 74.4342 193.781 74.2188 193.701 74.0642C193.622 73.9075 193.519 73.8143 193.392 73.7846C193.265 73.755 193.118 73.7884 192.951 73.885C192.763 73.9937 192.608 74.1425 192.486 74.3315C192.365 74.5198 192.281 74.7396 192.232 74.9908C192.184 75.2414 192.176 75.5155 192.209 75.813C192.235 76.0955 192.289 76.3119 192.371 76.4624C192.454 76.6121 192.559 76.7001 192.686 76.7263C192.815 76.7518 192.962 76.7166 193.128 76.6207C193.314 76.5135 193.467 76.3674 193.587 76.1826C193.708 75.9971 193.793 75.7804 193.841 75.5326C193.889 75.2834 193.898 75.0093 193.868 74.7104ZM197.404 75.1629L195.963 75.9949L195.484 71.4115L196.876 70.6082C197.262 70.3852 197.607 70.2867 197.909 70.3128C198.213 70.3382 198.461 70.4821 198.653 70.7446C198.846 71.005 198.968 71.3777 199.018 71.8626C199.068 72.331 199.036 72.7749 198.923 73.1942C198.81 73.6121 198.625 73.9898 198.366 74.3273C198.109 74.6628 197.788 74.9413 197.404 75.1629ZM196.817 74.4532L197.224 74.2178C197.427 74.1006 197.596 73.9563 197.731 73.7851C197.866 73.6138 197.962 73.407 198.017 73.1646C198.073 72.9201 198.084 72.6308 198.049 72.2967C198.016 71.9805 197.954 71.7528 197.863 71.6135C197.774 71.4736 197.655 71.4072 197.505 71.4145C197.357 71.4197 197.178 71.4823 196.97 71.6023L196.546 71.8474L196.817 74.4532ZM200.127 73.5906L199.649 69.0072L202.319 67.4656L202.415 68.409L200.703 69.3976L200.798 70.2727L202.372 69.364L202.469 70.3073L200.893 71.2171L200.989 72.0943L202.699 71.1067L202.795 72.0501L200.127 73.5906ZM203.708 71.5231L203.23 66.9397L204.187 66.3868L204.57 70.0269L206.125 69.1288L206.221 70.0722L203.708 71.5231ZM208.741 65.2458C208.712 65.0931 208.648 64.9979 208.549 64.9602C208.45 64.9225 208.314 64.9537 208.14 65.0538C208.027 65.1192 207.935 65.1904 207.865 65.2674C207.794 65.3431 207.744 65.4219 207.714 65.5038C207.684 65.5844 207.673 65.6635 207.681 65.7414C207.685 65.8041 207.7 65.8539 207.726 65.8907C207.754 65.9268 207.793 65.951 207.843 65.9633C207.894 65.9749 207.955 65.976 208.027 65.9665C208.099 65.955 208.179 65.9354 208.268 65.9077L208.593 65.8102C208.794 65.7496 208.972 65.7191 209.126 65.7187C209.28 65.7168 209.411 65.7467 209.521 65.8084C209.63 65.8687 209.717 65.9587 209.781 66.0784C209.845 66.1981 209.886 66.3475 209.905 66.5266C209.935 66.8207 209.9 67.1073 209.801 67.3863C209.702 67.6633 209.545 67.9222 209.331 68.1631C209.117 68.4019 208.852 68.6125 208.536 68.7951C208.215 68.9804 207.929 69.0838 207.678 69.1052C207.427 69.1252 207.223 69.054 207.066 68.8917C206.909 68.7294 206.81 68.466 206.77 68.1017L207.683 67.5743C207.703 67.7161 207.747 67.8193 207.813 67.8837C207.879 67.9482 207.964 67.9775 208.068 67.9717C208.172 67.9637 208.29 67.9214 208.423 67.8447C208.541 67.7765 208.639 67.7001 208.718 67.6153C208.796 67.5305 208.853 67.443 208.889 67.3527C208.925 67.2624 208.938 67.1742 208.928 67.0881C208.92 67.0103 208.893 66.9541 208.846 66.9197C208.799 66.8832 208.73 66.8678 208.638 66.8735C208.546 66.8777 208.428 66.9014 208.285 66.9445L207.889 67.0617C207.551 67.1604 207.276 67.1626 207.064 67.0681C206.854 66.9728 206.73 66.7492 206.693 66.3973C206.661 66.11 206.699 65.822 206.804 65.5333C206.91 65.2445 207.069 64.9755 207.281 64.7264C207.494 64.4752 207.748 64.2647 208.042 64.095C208.34 63.9231 208.604 63.8353 208.835 63.8315C209.066 63.8263 209.253 63.8988 209.396 64.0489C209.539 64.199 209.626 64.4215 209.658 64.7163L208.741 65.2458Z" fill="white"/>
<path d="M164.813 163.439L164.254 158.091L167.298 156.334L167.411 157.434L165.484 158.547L165.595 159.568L167.333 158.565L167.443 159.666L165.706 160.67L165.93 162.793L164.813 163.439ZM168.777 161.15L168.219 155.802L170.073 154.732C170.401 154.542 170.694 154.45 170.952 154.454C171.209 154.459 171.418 154.557 171.579 154.748C171.74 154.94 171.84 155.221 171.879 155.594C171.918 155.968 171.883 156.325 171.774 156.665C171.665 157.003 171.494 157.311 171.26 157.59C171.027 157.867 170.742 158.103 170.404 158.297L169.259 158.958L169.149 157.895L170.081 157.357C170.233 157.269 170.36 157.171 170.46 157.063C170.56 156.954 170.632 156.834 170.676 156.704C170.72 156.571 170.734 156.425 170.717 156.265C170.7 156.105 170.658 155.989 170.591 155.917C170.526 155.844 170.437 155.812 170.326 155.823C170.216 155.831 170.086 155.879 169.937 155.965L169.453 156.244L169.895 160.505L168.777 161.15ZM171.043 157.245L172.4 159.058L171.182 159.761L169.85 157.933L171.043 157.245ZM177.216 153.537C177.276 154.115 177.234 154.655 177.093 155.155C176.952 155.654 176.738 156.094 176.45 156.476C176.161 156.857 175.824 157.159 175.438 157.381C175.029 157.618 174.648 157.722 174.296 157.695C173.943 157.666 173.648 157.498 173.41 157.19C173.173 156.883 173.023 156.427 172.961 155.825C172.899 155.248 172.938 154.709 173.077 154.207C173.218 153.703 173.434 153.259 173.724 152.873C174.015 152.488 174.354 152.183 174.741 151.959C175.149 151.724 175.529 151.622 175.88 151.653C176.232 151.683 176.526 151.853 176.763 152.165C177.001 152.474 177.152 152.931 177.216 153.537ZM176.056 154.037C176.02 153.715 175.955 153.464 175.861 153.283C175.769 153.101 175.649 152.992 175.501 152.957C175.353 152.923 175.182 152.962 174.986 153.074C174.767 153.201 174.586 153.375 174.444 153.595C174.303 153.815 174.204 154.071 174.147 154.365C174.091 154.657 174.083 154.977 174.121 155.324C174.151 155.653 174.214 155.906 174.309 156.081C174.406 156.256 174.529 156.359 174.678 156.389C174.827 156.419 174.999 156.378 175.193 156.266C175.41 156.141 175.588 155.971 175.728 155.755C175.87 155.539 175.969 155.286 176.025 154.997C176.081 154.706 176.092 154.386 176.056 154.037ZM181.718 148.009L182.276 153.356L181.335 153.899L179.336 151.897L179.311 151.912L179.617 154.891L178.5 155.536L177.942 150.189L178.898 149.637L180.88 151.64L180.916 151.619L180.603 148.653L181.718 148.009ZM182.748 148.58L182.635 147.479L186.405 145.303L186.517 146.403L185.182 147.174L185.63 151.419L184.528 152.056L184.08 147.81L182.748 148.58ZM187.88 150.121L187.322 144.773L190.437 142.975L190.549 144.076L188.551 145.229L188.663 146.25L190.499 145.19L190.611 146.29L188.773 147.352L188.885 148.375L190.88 147.223L190.993 148.324L187.88 150.121ZM195.275 140.181L195.833 145.529L194.893 146.072L192.894 144.07L192.868 144.085L193.175 147.064L192.057 147.709L191.499 142.361L192.455 141.81L194.437 143.813L194.474 143.792L194.16 140.825L195.275 140.181ZM198.568 143.95L196.886 144.921L196.328 139.573L197.951 138.636C198.402 138.376 198.804 138.261 199.157 138.292C199.512 138.321 199.801 138.489 200.025 138.795C200.25 139.099 200.392 139.534 200.451 140.1C200.508 140.646 200.471 141.164 200.34 141.653C200.209 142.141 199.992 142.582 199.69 142.975C199.39 143.367 199.015 143.692 198.568 143.95ZM197.882 143.122L198.358 142.847C198.595 142.711 198.792 142.542 198.95 142.343C199.107 142.143 199.218 141.902 199.283 141.619C199.349 141.333 199.361 140.996 199.32 140.606C199.281 140.237 199.209 139.972 199.104 139.809C199 139.646 198.861 139.568 198.686 139.577C198.512 139.583 198.304 139.656 198.062 139.796L197.567 140.082L197.882 143.122Z" fill="white"/>
<path d="M146.259 101.314C146.23 101.161 146.166 101.066 146.067 101.028C145.968 100.99 145.832 101.022 145.659 101.122C145.545 101.187 145.454 101.258 145.383 101.335C145.312 101.411 145.262 101.49 145.233 101.572C145.203 101.652 145.192 101.731 145.199 101.809C145.203 101.872 145.218 101.922 145.245 101.959C145.273 101.995 145.312 102.019 145.362 102.031C145.413 102.043 145.474 102.044 145.545 102.034C145.617 102.023 145.698 102.003 145.787 101.976L146.112 101.878C146.312 101.817 146.49 101.787 146.644 101.786C146.798 101.785 146.93 101.815 147.039 101.876C147.149 101.937 147.235 102.027 147.299 102.146C147.363 102.266 147.404 102.415 147.423 102.594C147.453 102.889 147.419 103.175 147.319 103.454C147.22 103.731 147.064 103.99 146.849 104.231C146.636 104.47 146.371 104.68 146.054 104.863C145.733 105.048 145.448 105.152 145.197 105.173C144.946 105.193 144.742 105.122 144.584 104.96C144.427 104.797 144.328 104.534 144.288 104.17L145.201 103.642C145.222 103.784 145.265 103.887 145.331 103.952C145.398 104.016 145.483 104.045 145.586 104.039C145.69 104.032 145.809 103.989 145.941 103.913C146.06 103.844 146.158 103.768 146.236 103.683C146.314 103.598 146.372 103.511 146.407 103.421C146.443 103.33 146.456 103.242 146.446 103.156C146.439 103.078 146.411 103.022 146.364 102.988C146.318 102.951 146.248 102.936 146.157 102.941C146.064 102.946 145.946 102.969 145.803 103.012L145.407 103.13C145.069 103.228 144.794 103.23 144.582 103.136C144.372 103.041 144.248 102.817 144.211 102.465C144.18 102.178 144.217 101.89 144.323 101.601C144.428 101.312 144.587 101.043 144.8 100.794C145.013 100.543 145.266 100.333 145.56 100.163C145.858 99.9909 146.123 99.9031 146.354 99.8993C146.585 99.8941 146.771 99.9666 146.914 100.117C147.057 100.267 147.144 100.489 147.176 100.784L146.259 101.314ZM147.605 99.0486L148.676 98.4307L149.646 99.8803L149.683 99.859L150.257 97.5177L151.327 96.8998L150.266 100.787L150.42 102.283L149.468 102.833L149.314 101.337L147.605 99.0486ZM154.131 96.7685C154.103 96.6158 154.039 96.5206 153.94 96.4829C153.841 96.4452 153.704 96.4764 153.531 96.5765C153.418 96.6419 153.326 96.7131 153.256 96.7901C153.185 96.8658 153.135 96.9446 153.105 97.0265C153.075 97.1071 153.064 97.1862 153.072 97.2641C153.075 97.3268 153.09 97.3766 153.117 97.4134C153.145 97.4495 153.184 97.4737 153.234 97.486C153.285 97.4976 153.346 97.4987 153.417 97.4892C153.489 97.4777 153.57 97.4581 153.659 97.4304L153.984 97.3329C154.185 97.2724 154.362 97.2418 154.517 97.2414C154.67 97.2395 154.802 97.2694 154.912 97.3311C155.021 97.3914 155.108 97.4814 155.172 97.6011C155.236 97.7208 155.277 97.8702 155.295 98.0493C155.326 98.3435 155.291 98.63 155.191 98.909C155.093 99.186 154.936 99.4449 154.721 99.6858C154.508 99.9246 154.243 100.135 153.927 100.318C153.606 100.503 153.32 100.607 153.069 100.628C152.818 100.648 152.614 100.577 152.457 100.414C152.299 100.252 152.201 99.9887 152.16 99.6244L153.074 99.097C153.094 99.2389 153.137 99.342 153.204 99.4064C153.27 99.4709 153.355 99.5002 153.458 99.4944C153.562 99.4865 153.681 99.4441 153.814 99.3674C153.932 99.2993 154.03 99.2228 154.109 99.138C154.187 99.0532 154.244 98.9657 154.28 98.8754C154.316 98.7851 154.329 98.6969 154.319 98.6108C154.311 98.533 154.284 98.4769 154.236 98.4424C154.19 98.4059 154.121 98.3905 154.029 98.3962C153.937 98.4004 153.819 98.4241 153.676 98.4672L153.279 98.5844C152.941 98.6832 152.666 98.6853 152.455 98.5908C152.244 98.4955 152.121 98.2719 152.084 97.92C152.052 97.6328 152.089 97.3448 152.195 97.056C152.301 96.7672 152.46 96.4982 152.672 96.2491C152.885 95.9979 153.139 95.7874 153.433 95.6177C153.73 95.4458 153.995 95.358 154.226 95.3542C154.457 95.349 154.644 95.4215 154.787 95.5716C154.929 95.7218 155.017 95.9442 155.049 96.239L154.131 96.7685ZM155.633 95.4127L155.537 94.4694L158.768 92.604L158.864 93.5473L157.72 94.2078L158.104 97.8468L157.159 98.3923L156.775 94.7533L155.633 95.4127ZM159.928 96.7937L159.45 92.2103L162.12 90.6687L162.216 91.6121L160.504 92.6007L160.599 93.4758L162.173 92.5671L162.269 93.5104L160.693 94.4202L160.789 95.2974L162.5 94.3098L162.596 95.2532L159.928 96.7937ZM162.927 90.2028L164.115 89.5168L165.33 91.722L165.374 91.6965L166.014 88.4205L167.204 87.7334L167.682 92.3168L166.747 92.8569L166.46 90.1065L166.428 90.1246L165.833 93.3511L165.252 93.6867L164.085 91.461L164.055 91.478L164.339 94.2472L163.405 94.7862L162.927 90.2028ZM170.186 87.4995C170.157 87.3468 170.093 87.2516 169.994 87.2139C169.895 87.1762 169.759 87.2075 169.585 87.3076C169.472 87.3729 169.38 87.4441 169.31 87.5212C169.239 87.5969 169.189 87.6757 169.159 87.7576C169.129 87.8381 169.118 87.9173 169.126 87.9951C169.13 88.0579 169.145 88.1077 169.171 88.1445C169.199 88.1806 169.238 88.2048 169.288 88.2171C169.339 88.2287 169.401 88.2297 169.472 88.2203C169.544 88.2087 169.624 88.1891 169.713 88.1614L170.038 88.064C170.239 88.0034 170.417 87.9729 170.571 87.9724C170.725 87.9706 170.857 88.0005 170.966 88.0622C171.075 88.1225 171.162 88.2125 171.226 88.3322C171.29 88.4519 171.331 88.6013 171.35 88.7804C171.38 89.0745 171.345 89.3611 171.246 89.6401C171.147 89.917 170.99 90.176 170.776 90.4168C170.562 90.6556 170.297 90.8663 169.981 91.0488C169.66 91.2342 169.374 91.3376 169.123 91.3589C168.872 91.3789 168.668 91.3078 168.511 91.1455C168.354 90.9831 168.255 90.7198 168.215 90.3554L169.128 89.8281C169.148 89.9699 169.192 90.073 169.258 90.1375C169.325 90.202 169.409 90.2313 169.513 90.2254C169.617 90.2175 169.735 90.1752 169.868 90.0985C169.986 90.0303 170.084 89.9538 170.163 89.869C170.241 89.7843 170.298 89.6967 170.334 89.6064C170.37 89.5162 170.383 89.428 170.373 89.3419C170.365 89.264 170.338 89.2079 170.291 89.1735C170.244 89.137 170.175 89.1216 170.083 89.1272C169.991 89.1315 169.873 89.1552 169.73 89.1982L169.334 89.3155C168.996 89.4142 168.721 89.4163 168.509 89.3218C168.299 89.2266 168.175 89.003 168.138 88.651C168.107 88.3638 168.144 88.0758 168.249 87.787C168.355 87.4983 168.514 87.2293 168.726 86.9802C168.939 86.729 169.193 86.5185 169.487 86.3487C169.785 86.1769 170.049 86.089 170.28 86.0852C170.511 86.08 170.698 86.1525 170.841 86.3027C170.984 86.4528 171.071 86.6753 171.103 86.9701L170.186 87.4995Z" fill="white"/>
<path d="M140.296 1L63 45.7023L140.296 90L218 45.7023L140.296 1Z" fill="#FEB913" fill-opacity="0.14" stroke="#FEB913" stroke-dasharray="2 2"/>
<path d="M140.504 129.266V90.7237L63.2167 46.2681V83.1785L140.504 129.266Z" fill="#FEB913" fill-opacity="0.14" stroke="#FEB913" stroke-dasharray="2 2"/>
</svg>
