<svg width="10" height="10" viewBox="0 0 10 10" fill="none" xmlns="http://www.w3.org/2000/svg">
<g clip-path="url(#clip0_684_176)">
<path d="M4.99584 0.833313C2.69584 0.833313 0.833344 2.69998 0.833344 4.99998C0.833344 7.29998 2.69584 9.16665 4.99584 9.16665C7.30001 9.16665 9.16668 7.29998 9.16668 4.99998C9.16668 2.69998 7.30001 0.833313 4.99584 0.833313ZM7.88334 3.33331H6.65418C6.52084 2.81248 6.32918 2.31248 6.07918 1.84998C6.84584 2.11248 7.48334 2.64581 7.88334 3.33331ZM5.00001 1.68331C5.34584 2.18331 5.61668 2.73748 5.79584 3.33331H4.20418C4.38334 2.73748 4.65418 2.18331 5.00001 1.68331ZM1.77501 5.83331C1.70834 5.56665 1.66668 5.28748 1.66668 4.99998C1.66668 4.71248 1.70834 4.43331 1.77501 4.16665H3.18334C3.15001 4.44165 3.12501 4.71665 3.12501 4.99998C3.12501 5.28331 3.15001 5.55831 3.18334 5.83331H1.77501ZM2.11668 6.66665H3.34584C3.47918 7.18748 3.67084 7.68748 3.92084 8.14998C3.15418 7.88748 2.51668 7.35831 2.11668 6.66665ZM3.34584 3.33331H2.11668C2.51668 2.64165 3.15418 2.11248 3.92084 1.84998C3.67084 2.31248 3.47918 2.81248 3.34584 3.33331ZM5.00001 8.31665C4.65418 7.81665 4.38334 7.26248 4.20418 6.66665H5.79584C5.61668 7.26248 5.34584 7.81665 5.00001 8.31665ZM5.97501 5.83331H4.02501C3.98751 5.55831 3.95834 5.28331 3.95834 4.99998C3.95834 4.71665 3.98751 4.43748 4.02501 4.16665H5.97501C6.01251 4.43748 6.04168 4.71665 6.04168 4.99998C6.04168 5.28331 6.01251 5.55831 5.97501 5.83331ZM6.07918 8.14998C6.32918 7.68748 6.52084 7.18748 6.65418 6.66665H7.88334C7.48334 7.35415 6.84584 7.88748 6.07918 8.14998ZM6.81668 5.83331C6.85001 5.55831 6.87501 5.28331 6.87501 4.99998C6.87501 4.71665 6.85001 4.44165 6.81668 4.16665H8.22501C8.29168 4.43331 8.33334 4.71248 8.33334 4.99998C8.33334 5.28748 8.29168 5.56665 8.22501 5.83331H6.81668Z" fill="black"/>
</g>
<defs>
<clipPath id="clip0_684_176">
<rect width="10" height="10" fill="white"/>
</clipPath>
</defs>
</svg>
