<?xml version="1.0" encoding="UTF-8"?>
<svg id="Layer_1" xmlns="http://www.w3.org/2000/svg" viewBox="0 0 1032.62 1200">
  <defs>
    <style>
      .cls-1 {
        fill: #fff;
      }
    </style>
  </defs>
  <polygon class="cls-1" points="791.35 218.96 791.35 295.31 563.61 295.31 563.61 599.75 487.26 599.75 487.26 295.31 449.09 295.31 449.09 218.96 791.35 218.96"/>
  <polygon class="cls-1" points="679.63 713.62 679.63 943.26 716.61 943.26 716.61 789.33 792.96 789.33 792.96 1018.96 487.56 1018.96 487.56 943.26 603.28 943.26 603.28 713.62 563.91 713.62 563.91 867.55 487.56 867.55 487.56 637.92 792.96 637.92 792.96 713.62 679.63 713.62"/>
  <polygon class="cls-1" points="449.38 637.92 449.38 1018.96 373.03 1018.96 373.03 714.27 334.86 714.27 334.86 1018.96 258.51 1018.96 258.51 714.27 220.33 714.27 220.33 1018.96 143.98 1018.96 143.98 637.92 449.38 637.92"/>
  <g>
    <polygon class="cls-1" points="410.93 218.96 410.93 295.31 219.29 295.31 219.29 599.75 142.94 599.75 142.94 295.31 104.76 295.31 104.76 218.96 410.93 218.96"/>
    <path class="cls-1" d="M257.32,333.34v266.4h76.35v-76.12h38.18v76.12h76.35v-266.4h-190.88ZM371.85,447.87h-38.18v-38.18h38.18v38.18Z"/>
  </g>
  <path class="cls-1" d="M602.08,333.34v266.4h76.35v-76.12h38.18v76.12h76.35v-266.4h-190.88ZM716.61,447.87h-38.18v-38.18h38.18v38.18Z"/>
</svg>