<?xml version="1.0" encoding="UTF-8"?>
<svg id="Layer_1" xmlns="http://www.w3.org/2000/svg" viewBox="0 0 1032.62 1200">
  <defs>
    <style>
      .cls-1 {
        fill: #1a1a1a;
      }
    </style>
  </defs>
  <polygon class="cls-1" points="858.8 200 858.8 276.35 631.06 276.35 631.06 580.78 554.71 580.78 554.71 276.35 516.53 276.35 516.53 200 858.8 200"/>
  <polygon class="cls-1" points="747.08 694.66 747.08 924.3 784.06 924.3 784.06 770.37 860.41 770.37 860.41 1000 555.01 1000 555.01 924.3 670.73 924.3 670.73 694.66 631.36 694.66 631.36 848.59 555.01 848.59 555.01 618.96 860.41 618.96 860.41 694.66 747.08 694.66"/>
  <polygon class="cls-1" points="516.83 618.96 516.83 1000 440.48 1000 440.48 695.31 402.31 695.31 402.31 1000 325.96 1000 325.96 695.31 287.78 695.31 287.78 1000 211.43 1000 211.43 618.96 516.83 618.96"/>
  <g>
    <polygon class="cls-1" points="478.38 200 478.38 276.35 286.74 276.35 286.74 580.78 210.39 580.78 210.39 276.35 172.21 276.35 172.21 200 478.38 200"/>
    <path class="cls-1" d="M324.77,314.38v266.4h76.35v-76.12h38.18v76.12h76.35v-266.4h-190.88ZM439.3,428.91h-38.18v-38.18h38.18v38.18Z"/>
  </g>
  <path class="cls-1" d="M669.53,314.38v266.4h76.35v-76.12h38.18v76.12h76.35v-266.4h-190.88ZM784.06,428.91h-38.18v-38.18h38.18v38.18Z"/>
</svg>